<svg xmlns="http://www.w3.org/2000/svg" viewBox="0 0 1200 630">
  <defs>
    <linearGradient id="bg" x1="0" x2="1" y1="0" y2="1">
      <stop offset="0" stop-color="#090b18"/>
      <stop offset="0.52" stop-color="#05060b"/>
      <stop offset="1" stop-color="#071d2a"/>
    </linearGradient>
    <linearGradient id="markGradient" x1="738" x2="1028" y1="166" y2="456" gradientUnits="userSpaceOnUse">
      <stop offset="0" stop-color="#8b5cf6"/>
      <stop offset="0.52" stop-color="#3388ff"/>
      <stop offset="1" stop-color="#2dd4ff"/>
    </linearGradient>
    <linearGradient id="bracketGradient" x1="690" x2="1076" y1="196" y2="430" gradientUnits="userSpaceOnUse">
      <stop offset="0" stop-color="#a855f7"/>
      <stop offset="0.5" stop-color="#ff4fd8"/>
      <stop offset="1" stop-color="#2dd4ff"/>
    </linearGradient>
  </defs>
  <rect width="1200" height="630" fill="url(#bg)"/>
  <g opacity="0.13" stroke="#c1c8ff">
    <path d="M0 96h1200M0 180h1200M0 264h1200M0 348h1200M0 432h1200M0 516h1200"/>
    <path d="M96 0v630M180 0v630M264 0v630M348 0v630M432 0v630M516 0v630M600 0v630M684 0v630M768 0v630M852 0v630M936 0v630M1020 0v630M1104 0v630"/>
  </g>
  <path d="M490 0 300 630" stroke="#8b5cf6" stroke-opacity="0.16" stroke-width="80"/>
  <path d="M870 0 680 630" stroke="#2dd4ff" stroke-opacity="0.1" stroke-width="72"/>
  <rect x="64" y="62" width="1072" height="506" rx="32" fill="#0d101c" fill-opacity="0.76" stroke="#b4beff" stroke-opacity="0.16"/>
  <text x="104" y="158" fill="#2dd4ff" font-family="Inter, Arial, sans-serif" font-size="32" font-weight="900" letter-spacing="0">ATOCODE</text>
  <text x="104" y="284" fill="#f8fbff" font-family="Inter, Arial, sans-serif" font-size="72" font-weight="900" letter-spacing="0">Digital systems</text>
  <text x="104" y="366" fill="#f8fbff" font-family="Inter, Arial, sans-serif" font-size="72" font-weight="900" letter-spacing="0">that stay online.</text>
  <text x="104" y="454" fill="#a9afc0" font-family="Inter, Arial, sans-serif" font-size="30" font-weight="700" letter-spacing="0">Web development, UI design, hosting, and maintenance.</text>
  <rect x="748" y="138" width="292" height="292" rx="70" fill="#05060b"/>
  <path d="M842 210 746 284l96 74" fill="none" stroke="url(#bracketGradient)" stroke-linecap="round" stroke-linejoin="round" stroke-width="30" opacity="0.9"/>
  <path d="M946 210 1042 284 946 358" fill="none" stroke="url(#bracketGradient)" stroke-linecap="round" stroke-linejoin="round" stroke-width="30" opacity="0.9"/>
  <path d="M812 398 872 210c6-19 38-19 44 0l60 188" fill="none" stroke="url(#markGradient)" stroke-linecap="round" stroke-linejoin="round" stroke-width="42"/>
  <path d="M846 332h96" fill="none" stroke="#f8fbff" stroke-linecap="round" stroke-width="32"/>
  <path d="M904 228 862 384" fill="none" stroke="#05060b" stroke-linecap="round" stroke-width="12" opacity="0.84"/>
</svg>
