<svg xmlns="http://www.w3.org/2000/svg" viewBox="0 0 1080 1080" role="img" aria-labelledby="title desc">
  <title id="title">ATOCODE social avatar</title>
  <desc id="desc">Square social avatar version of the ATOCODE mark.</desc>
  <defs>
    <linearGradient id="bgGlow" x1="146" x2="934" y1="146" y2="934" gradientUnits="userSpaceOnUse">
      <stop offset="0" stop-color="#11163b"/>
      <stop offset="0.48" stop-color="#05060b"/>
      <stop offset="1" stop-color="#071d2a"/>
    </linearGradient>
    <linearGradient id="markGradient" x1="284" x2="796" y1="284" y2="796" gradientUnits="userSpaceOnUse">
      <stop offset="0" stop-color="#8b5cf6"/>
      <stop offset="0.52" stop-color="#3388ff"/>
      <stop offset="1" stop-color="#2dd4ff"/>
    </linearGradient>
    <linearGradient id="bracketGradient" x1="238" x2="842" y1="290" y2="790" gradientUnits="userSpaceOnUse">
      <stop offset="0" stop-color="#a855f7"/>
      <stop offset="0.5" stop-color="#ff4fd8"/>
      <stop offset="1" stop-color="#2dd4ff"/>
    </linearGradient>
  </defs>
  <rect width="1080" height="1080" fill="#05060b"/>
  <rect x="38" y="38" width="1004" height="1004" rx="212" fill="url(#bgGlow)"/>
  <path d="M0 342h1080M0 540h1080M0 738h1080M342 0v1080M540 0v1080M738 0v1080" stroke="#c1c8ff" stroke-opacity="0.045" stroke-width="4"/>
  <path d="M360 284 206 540l154 256" fill="none" stroke="url(#bracketGradient)" stroke-linecap="round" stroke-linejoin="round" stroke-width="58" opacity="0.9"/>
  <path d="M720 284 874 540 720 796" fill="none" stroke="url(#bracketGradient)" stroke-linecap="round" stroke-linejoin="round" stroke-width="58" opacity="0.9"/>
  <path d="M348 790 500 306c14-44 66-44 80 0l152 484" fill="none" stroke="url(#markGradient)" stroke-linecap="round" stroke-linejoin="round" stroke-width="86"/>
  <path d="M432 616h216" fill="none" stroke="#f8fbff" stroke-linecap="round" stroke-width="68"/>
  <path d="M555 330 472 746" fill="none" stroke="#05060b" stroke-linecap="round" stroke-width="24" opacity="0.84"/>
</svg>
