<svg xmlns="http://www.w3.org/2000/svg" viewBox="0 0 600 400">
  <defs>
    <linearGradient id="bg" x1="0" y1="0" x2="1" y2="1">
      <stop offset="0" stop-color="#0f172a"/>
      <stop offset="1" stop-color="#1e293b"/>
    </linearGradient>
  </defs>
  <rect width="600" height="400" fill="url(#bg)"/>
  <rect x="40" y="40" width="520" height="320" rx="16" fill="#1e293b" stroke="#334155" stroke-width="2"/>
  <rect x="80" y="80" width="200" height="30" rx="4" fill="#f59e0b" opacity="0.8"/>
  <rect x="80" y="130" width="440" height="12" rx="4" fill="#475569"/>
  <rect x="80" y="155" width="380" height="12" rx="4" fill="#475569"/>
  <rect x="80" y="180" width="300" height="12" rx="4" fill="#475569"/>
  <circle cx="480" cy="100" r="40" fill="#f59e0b" opacity="0.2"/>
  <path d="M480 80 L485 95 L500 95 L488 105 L493 120 L480 110 L467 120 L472 105 L460 95 L475 95 Z" fill="#f59e0b" opacity="0.6"/>
  <rect x="80" y="220" width="100" height="60" rx="8" fill="#334155"/>
  <rect x="200" y="220" width="100" height="60" rx="8" fill="#334155"/>
  <rect x="320" y="220" width="100" height="60" rx="8" fill="#334155"/>
  <rect x="440" y="220" width="80" height="60" rx="8" fill="#334155"/>
  <rect x="80" y="300" width="440" height="40" rx="8" fill="#334155"/>
  <text x="300" y="180" fill="#94a3b8" font-family="system-ui, sans-serif" font-size="14" text-anchor="middle" font-weight="600">B1 Ventures</text>
</svg>